<svg xmlns="http://www.w3.org/2000/svg" viewBox="0 0 512 512"><linearGradient id="a" gradientUnits="userSpaceOnUse" x1="236.938" y1="-63.102" x2="236.938" y2="545.395" gradientTransform="matrix(1.0667 0 0 -1.0667 3.267 557.533)"><stop offset="0" stop-color="#fff"/><stop offset="1" stop-color="#e8efee"/></linearGradient><circle cx="256" cy="256" r="256" fill="url(#a)"/><linearGradient id="b" gradientUnits="userSpaceOnUse" x1="236.938" y1="617.278" x2="236.938" y2="28.497" gradientTransform="matrix(1.0667 0 0 -1.0667 3.267 557.533)"><stop offset="0" stop-color="#fff"/><stop offset="1" stop-color="#e8efee"/></linearGradient><circle cx="256" cy="256" r="247.701" fill="url(#b)"/><linearGradient id="c" gradientUnits="userSpaceOnUse" x1="123.188" y1="396.438" x2="339.637" y2="179.988" gradientTransform="matrix(1.0667 0 0 -1.0667 3.267 557.533)"><stop offset="0" stop-color="#5b6a6a"/><stop offset="1" stop-color="#303033"/></linearGradient><circle cx="256" cy="256" r="223.392" fill="url(#c)"/><linearGradient id="d" gradientUnits="userSpaceOnUse" x1="236.938" y1="421.887" x2="236.938" y2="146.998" gradientTransform="matrix(1.0667 0 0 -1.0667 3.267 557.533)"><stop offset="0" stop-color="#fff"/><stop offset="1" stop-color="#e8efee"/></linearGradient><circle cx="256" cy="256" r="176.64" fill="url(#d)"/><linearGradient id="e" gradientUnits="userSpaceOnUse" x1="236.438" y1="421.387" x2="236.438" y2="146.498" gradientTransform="matrix(1.0667 0 0 -1.0667 3.267 557.533)"><stop offset="0" stop-color="#fff"/><stop offset="1" stop-color="#e8efee"/></linearGradient><circle cx="255.467" cy="256.533" r="176.64" fill="url(#e)"/><linearGradient id="f" gradientUnits="userSpaceOnUse" x1="271.105" y1="248.055" x2="151.735" y2="367.415" gradientTransform="matrix(1.0667 0 0 -1.0667 3.267 557.533)"><stop offset="0" stop-color="#c2cece" stop-opacity="0"/><stop offset=".179" stop-color="#afbcbc" stop-opacity=".179"/><stop offset="1" stop-color="#5b6a6a"/></linearGradient><path d="M432.404 265.186l-71.074-71.074c-5.04-6.514-10.817-9.533-17.078-8.908-.999-1.232-54.593-53.188-54.593-53.188-17.298-4.9-47.529-13.239-63.28-17.34-22.823-5.941-25.343-8.623-17.392 17.523 2.322 7.636.337 10.427-6.533 13.761-33.885 16.445-55.695 43.394-65.071 79.753-8.103 31.424-4.389 61.826 11.517 90.355 1.979 3.55 4.455 6.263 7.229 8.148L264.35 432.438c90.632-4.219 163.416-76.731 168.054-167.252z" fill="url(#f)"/><linearGradient id="g" gradientUnits="userSpaceOnUse" x1="334.625" y1="184.774" x2="217.364" y2="302.034" gradientTransform="matrix(1.0667 0 0 -1.0667 3.267 557.533)"><stop offset="0" stop-color="#c2cece" stop-opacity="0"/><stop offset=".179" stop-color="#afbcbc" stop-opacity=".179"/><stop offset="1" stop-color="#5b6a6a"/></linearGradient><path d="M432.41 265.19c-4.646 90.522-77.427 163.034-168.064 167.245l-56.004-56.137.299-.401.115-.243c-.013-.013 0-.013 0-.013-.499-1.459.371-3.277 2.534-5.76.755-.896 1.702-1.882 2.803-2.97a9809.693 9809.693 0 0158.227-56.96c8.013-7.77 9.818-7.117 13.107 4.006 1.638 5.542 3.226 11.11 4.915 16.64.192.602.909 1.05 1.382 1.574 41.946-16.602 61.184-69.299 40.934-112.128-7.962-16.845-6.464-27.277 4.71-32.794 2.355-1.152 4.646-1.843 6.874-2.061l.013.013c5.901-.589 11.366 2.061 16.205 7.821.294.358.576.717.87 1.088l71.08 71.08z" fill="url(#g)"/><linearGradient id="h" gradientUnits="userSpaceOnUse" x1="271.993" y1="146.481" x2="271.993" y2="349.156" gradientTransform="matrix(1.0667 0 0 -1.0667 3.267 557.533)"><stop offset="0" stop-color="#00a6f9"/><stop offset="1" stop-color="#0071e2"/></linearGradient><path d="M291.73 332.169c41.939-16.597 61.172-69.29 40.931-112.119-7.963-16.849-6.464-27.281 4.714-32.799 11.634-5.743 22.047.087 29.809 16.69 28.187 60.288 3.248 132.79-56.462 161.943-8.699 4.247-9.574 8.07-7.1 16.384 6.366 21.381 5.998 21.478-15.655 15.936-23.484-6.011-46.996-11.905-70.451-18.026-12.627-2.844-11.5-5.306-3.428-13.262a9993.424 9993.424 0 0158.238-56.96c8.011-7.769 9.815-7.12 13.098 3.999 1.637 5.548 3.227 11.11 4.918 16.641.186.609.907 1.056 1.388 1.573z" fill="url(#h)"/><linearGradient id="i" gradientUnits="userSpaceOnUse" x1="140.517" y1="374.667" x2="229.737" y2="285.437" gradientTransform="matrix(1.0667 0 0 -1.0667 3.267 557.533)"><stop offset="0" stop-color="#00a6f9"/><stop offset="1" stop-color="#0071e2"/></linearGradient><path d="M289.659 132.015c5.931 1.68 7.951 9.057 3.718 13.538-19.348 20.49-37.951 40.282-56.818 59.82-4.605 4.768-7.601 1.446-9.06-3.735-2.032-7.218-4.131-14.417-6.219-21.681-40.801 15.264-61.216 67.072-43.548 108.528 1.417 3.325 3.174 6.503 4.694 9.787 5.147 11.116 1.932 22.155-7.813 26.951-9.638 4.745-19.838 1.385-25.713-9.154-15.906-28.529-19.62-58.932-11.517-90.355 9.376-36.358 31.186-63.308 65.071-79.753 6.869-3.334 8.855-6.125 6.532-13.761-7.952-26.145-5.431-23.463 17.392-17.523 15.752 4.098 45.983 12.438 63.281 17.338z" fill="url(#i)"/></svg>